<svg width="906" height="178" viewBox="0 0 906 178" fill="none" xmlns="http://www.w3.org/2000/svg">
<path d="M103.081 169.884L73.3922 120.67C71.0658 120.892 68.5178 120.892 65.956 120.892H27.3905V169.884H0V7.36914H65.9283C107.471 7.36914 131.4 27.5728 131.4 62.8564C131.4 88.8621 119.325 107.169 97.7362 115.56L134.183 169.884H103.081ZM65.9283 96.2844C91.0063 96.2844 105.408 85.6079 105.408 63.5488C105.408 42.1958 91.0063 31.9763 65.9283 31.9763H27.3905V96.2844H65.9283Z" fill="#F8F8F8"/>
<path d="M357.792 7.36914L397.258 139.475L436.488 7.36914H463.421L502.887 139.475L542.117 7.36914H570.449L516.125 169.884H488.029L449.491 43.1236L410.482 169.884H382.205L328.297 7.36914H357.792Z" fill="#F8F8F8"/>
<path d="M612.217 7.36914L699.304 124.146V7.36914H726.238V169.884H699.304L612.687 53.3431V169.884H585.297V7.36914H612.217Z" fill="#F8F8F8"/>
<path d="M906 88.6267C906 135.528 870.467 169.884 821.253 169.884H755.324V7.36914H821.945C870.702 7.36914 906 41.545 906 88.6267ZM878.305 88.8621C878.305 55.6279 853.462 31.9763 821.433 31.9763H782.659V145.277H822.596C854.224 145.277 878.36 121.861 878.36 88.8621H878.305Z" fill="#F8F8F8"/>
<path d="M275.291 114.369C267.495 127.677 256.583 138.603 242.057 147.604C242.158 147.671 242.264 147.732 242.375 147.784L243.635 148.448L244.189 148.739L245.352 149.334C246.146 149.75 246.935 150.151 247.72 150.539L248.454 150.885L250.116 151.689L251.044 152.104L252.539 152.783L253.536 153.198L254.921 153.821L255.973 154.237L257.358 154.804L258.452 155.22L259.837 155.746L262.329 156.618C262.703 156.757 263.091 156.868 263.465 156.992L264.85 157.449L266.013 157.809L267.398 158.225L268.589 158.557L269.973 158.945L271.178 159.263L272.563 159.609L273.795 159.914L275.18 160.233L276.426 160.496L277.811 160.786L279.085 161.036L280.47 161.299L281.744 161.52L283.129 161.742L284.43 161.95L285.22 162.06C309.594 145.621 324.232 118.068 324.214 88.6682C324.213 84.8491 323.968 81.0327 323.48 77.244C313.856 74.8761 304.163 72.1204 294.636 69.0324L288.224 66.9414C288.224 68.7 288.1 70.4587 287.961 72.1896C287.042 87.037 282.706 101.473 275.291 114.369Z" fill="#F8F8F8"/>
<path d="M322.312 70.0424C313.538 29.3264 277.219 0 235.568 0C226.37 0 217.23 1.43045 208.471 4.23874C204.328 10.7305 200.805 17.5961 197.947 24.747C193.55 36.0079 190.962 47.8932 190.275 59.9614V60.5845C197.836 57.7319 205.3 54.5331 212.542 51.0159C221.089 46.8768 229.409 42.2877 237.468 37.2652L239.157 36.2128L240.833 37.3068C250.361 43.5451 260.39 48.9872 270.813 53.5777C274.787 55.3224 278.415 56.7487 281.891 58.0504C286.779 59.8506 291.46 61.3738 296.542 63.0217C305.086 65.7912 313.74 68.2976 322.367 70.4855C322.381 70.3332 322.34 70.1809 322.312 70.0424Z" fill="#F8F8F8"/>
<path d="M196.819 114.573C189.335 101.708 185.02 87.2425 184.231 72.3799C183.895 68.0677 183.816 63.7404 183.996 59.4185C183.996 58.7261 184.107 57.0229 184.287 55.015C185.272 43.8829 187.89 32.9558 192.055 22.584L192.221 22.1547C194.142 17.2817 196.381 12.5403 198.923 7.96094C179.585 16.7985 164.029 32.2648 155.082 51.5531C149.72 63.1865 146.942 75.8445 146.942 88.6535C146.942 137.272 186.949 177.278 235.567 177.278C249.986 177.278 264.19 173.759 276.941 167.028H276.802C275.487 166.765 274.199 166.488 272.897 166.183L272.094 165.989C270.792 165.685 269.491 165.352 268.203 165.006L267.51 164.812C266.264 164.466 265.046 164.106 263.813 163.732L263.439 163.622C262.151 163.22 260.864 162.791 259.59 162.348L258.939 162.043C257.665 161.586 256.405 161.129 255.145 160.658L254.715 160.492C253.538 160.035 252.361 159.55 251.198 159.107L250.575 158.844C249.356 158.304 248.138 157.75 246.933 157.182L246.199 156.836C244.953 156.241 243.734 155.631 242.516 155.008C240.203 153.804 237.337 152.239 234.207 150.536L229.402 147.766L229.54 147.697C216.025 139.581 204.77 128.187 196.819 114.573Z" fill="#F8F8F8"/>
</svg>
